<svg width="35" height="40" viewBox="0 0 35 40" fill="none" xmlns="http://www.w3.org/2000/svg">
<g id="Combined Shape 3 Copy">
<g id="Combined Shape 2">
<path id="Combined Shape" fill-rule="evenodd" clip-rule="evenodd" d="M16.5401 9.67158V1H19.6486V9.6992C21.334 10.0112 23.0221 10.7923 24.4545 11.898L33.3305 2.55309L34.9801 4.29367L26.1886 13.5497C26.7908 14.2618 27.2924 15.0447 27.6566 15.878L34.9521 33.4767L32.0636 33.478L34.9475 36.5366L33.3 38.2794L28.7742 33.4796L7.2493 33.4897L2.69995 38.2794L1.05031 36.5388L3.94496 33.4912L1.0641 33.4926L8.48976 15.888L8.50843 15.8469C8.91557 15.01 9.41244 14.2402 9.98044 13.5476L1.27686 4.31687L2.92436 2.57402L11.684 11.8642C13.1197 10.7176 14.7962 9.9548 16.5401 9.67158ZM12.7929 13.0402C14.3139 11.8804 16.1267 11.2144 17.9556 11.1912L18.0544 11.1906C19.8314 11.1906 21.7541 11.911 23.3388 13.0727L18.0619 18.6284L12.7929 13.0402ZM19.7073 20.3734L25.0875 14.709C25.5609 15.2798 25.9541 15.8994 26.2392 16.5516L32.5748 31.8357L30.5159 31.8366L19.7073 20.3734ZM27.2265 31.8381L18.0559 22.1121L8.80983 31.8467L27.2265 31.8381ZM16.4105 20.3671L11.0809 14.7146C10.6461 15.2577 10.2617 15.8545 9.93967 16.4985L9.89951 16.5797L3.45874 31.8492L5.50549 31.8483L16.4105 20.3671Z" fill="black"/>
</g>
</g>
</svg>
